<mxfile host="app.diagrams.net" modified="2021-03-14T21:10:23.836Z" agent="5.0 (Macintosh; Intel Mac OS X 10_15_6) AppleWebKit/605.1.15 (KHTML, like Gecko) Version/14.0.1 Safari/605.1.15" etag="fVVzFr7ZKCKri-ZWwXzs" version="14.4.8" type="github">
  <diagram name="Page-1" id="7e0a89b8-554c-2b80-1dc8-d5c74ca68de4">
    <mxGraphModel dx="788" dy="517" grid="1" gridSize="10" guides="1" tooltips="1" connect="1" arrows="1" fold="1" page="1" pageScale="1" pageWidth="1100" pageHeight="850" background="#ffffff" math="0" shadow="0">
      <root>
        <mxCell id="0" />
        <mxCell id="1" parent="0" />
        <mxCell id="XE9NlS-F2RxgZh415EiJ-18" style="edgeStyle=orthogonalEdgeStyle;rounded=0;orthogonalLoop=1;jettySize=auto;html=1;exitX=1;exitY=0.3333333333333333;exitDx=0;exitDy=0;exitPerimeter=0;entryX=0;entryY=0.165;entryDx=0;entryDy=0;entryPerimeter=0;strokeWidth=1;fontSize=20;endArrow=none;endFill=0;" edge="1" parent="1" source="XE9NlS-F2RxgZh415EiJ-2" target="XE9NlS-F2RxgZh415EiJ-23">
          <mxGeometry relative="1" as="geometry">
            <mxPoint x="197" y="124.85000000000002" as="targetPoint" />
          </mxGeometry>
        </mxCell>
        <mxCell id="XE9NlS-F2RxgZh415EiJ-19" style="edgeStyle=orthogonalEdgeStyle;rounded=0;orthogonalLoop=1;jettySize=auto;html=1;exitX=0;exitY=0.3333333333333333;exitDx=0;exitDy=0;exitPerimeter=0;strokeWidth=1;fontSize=20;entryX=0;entryY=0.835;entryDx=0;entryDy=0;entryPerimeter=0;endArrow=none;endFill=0;" edge="1" parent="1" source="XE9NlS-F2RxgZh415EiJ-2" target="XE9NlS-F2RxgZh415EiJ-23">
          <mxGeometry relative="1" as="geometry">
            <mxPoint x="197" y="185.14999999999998" as="targetPoint" />
            <Array as="points">
              <mxPoint x="10" y="153" />
              <mxPoint x="10" y="185" />
            </Array>
          </mxGeometry>
        </mxCell>
        <mxCell id="XE9NlS-F2RxgZh415EiJ-2" value="Actor" style="shape=umlActor;verticalLabelPosition=bottom;verticalAlign=top;html=1;outlineConnect=0;" vertex="1" parent="1">
          <mxGeometry x="30" y="120" width="70" height="100" as="geometry" />
        </mxCell>
        <mxCell id="XE9NlS-F2RxgZh415EiJ-25" style="edgeStyle=orthogonalEdgeStyle;rounded=0;orthogonalLoop=1;jettySize=auto;html=1;entryX=0.612;entryY=0.89;entryDx=0;entryDy=0;entryPerimeter=0;strokeWidth=1;fontSize=18;exitX=1;exitY=0.5;exitDx=0;exitDy=0;exitPerimeter=0;endArrow=none;endFill=0;" edge="1" parent="1" source="XE9NlS-F2RxgZh415EiJ-11" target="XE9NlS-F2RxgZh415EiJ-23">
          <mxGeometry relative="1" as="geometry">
            <Array as="points">
              <mxPoint x="290" y="405" />
              <mxPoint x="290" y="200" />
              <mxPoint x="240" y="200" />
            </Array>
          </mxGeometry>
        </mxCell>
        <mxCell id="XE9NlS-F2RxgZh415EiJ-42" value="Vref&lt;br&gt;" style="edgeLabel;html=1;align=center;verticalAlign=middle;resizable=0;points=[];fontSize=18;" vertex="1" connectable="0" parent="XE9NlS-F2RxgZh415EiJ-25">
          <mxGeometry x="0.6524" relative="1" as="geometry">
            <mxPoint x="-2" y="-20" as="offset" />
          </mxGeometry>
        </mxCell>
        <mxCell id="XE9NlS-F2RxgZh415EiJ-28" style="edgeStyle=orthogonalEdgeStyle;rounded=0;orthogonalLoop=1;jettySize=auto;html=1;exitX=0;exitY=0.165;exitDx=0;exitDy=0;exitPerimeter=0;strokeWidth=1;fontSize=18;startArrow=none;startFill=0;endArrow=none;endFill=0;" edge="1" parent="1" source="XE9NlS-F2RxgZh415EiJ-11">
          <mxGeometry relative="1" as="geometry">
            <mxPoint x="290" y="340" as="targetPoint" />
          </mxGeometry>
        </mxCell>
        <mxCell id="XE9NlS-F2RxgZh415EiJ-11" value="TL072" style="verticalLabelPosition=bottom;shadow=0;dashed=0;align=center;html=1;verticalAlign=top;shape=mxgraph.electrical.abstract.operational_amp_1;fontSize=18;" vertex="1" parent="1">
          <mxGeometry x="180" y="360" width="90" height="90" as="geometry" />
        </mxCell>
        <mxCell id="XE9NlS-F2RxgZh415EiJ-23" value="AD623&lt;br style=&quot;font-size: 18px;&quot;&gt;" style="verticalLabelPosition=bottom;shadow=0;dashed=0;align=center;html=1;verticalAlign=top;shape=mxgraph.electrical.abstract.operational_amp_1;fontSize=18;" vertex="1" parent="1">
          <mxGeometry x="180" y="110" width="98" height="90" as="geometry" />
        </mxCell>
        <mxCell id="XE9NlS-F2RxgZh415EiJ-26" value="V&lt;sub&gt;dd&lt;/sub&gt;" style="verticalLabelPosition=top;verticalAlign=bottom;shape=mxgraph.electrical.signal_sources.vdd;shadow=0;dashed=0;align=center;strokeWidth=1;fontSize=24;html=1;flipV=1;" vertex="1" parent="1">
          <mxGeometry x="110" y="300" width="40" height="35" as="geometry" />
        </mxCell>
        <mxCell id="XE9NlS-F2RxgZh415EiJ-29" style="edgeStyle=orthogonalEdgeStyle;rounded=0;orthogonalLoop=1;jettySize=auto;html=1;exitX=0;exitY=0.5;exitDx=0;exitDy=0;exitPerimeter=0;entryX=0.5;entryY=0;entryDx=0;entryDy=0;entryPerimeter=0;startArrow=none;startFill=0;endArrow=none;endFill=0;strokeWidth=1;fontSize=18;" edge="1" parent="1" source="XE9NlS-F2RxgZh415EiJ-27" target="XE9NlS-F2RxgZh415EiJ-26">
          <mxGeometry relative="1" as="geometry" />
        </mxCell>
        <mxCell id="XE9NlS-F2RxgZh415EiJ-27" value="10K&lt;br&gt;" style="pointerEvents=1;verticalLabelPosition=bottom;shadow=0;dashed=0;align=center;html=1;verticalAlign=top;shape=mxgraph.electrical.resistors.resistor_2;fontSize=18;rotation=90;" vertex="1" parent="1">
          <mxGeometry x="105" y="380" width="50" height="20" as="geometry" />
        </mxCell>
        <mxCell id="XE9NlS-F2RxgZh415EiJ-30" value="" style="pointerEvents=1;verticalLabelPosition=bottom;shadow=0;dashed=0;align=center;html=1;verticalAlign=top;shape=mxgraph.electrical.signal_sources.signal_ground;fontSize=18;" vertex="1" parent="1">
          <mxGeometry x="107.5" y="500" width="45" height="30" as="geometry" />
        </mxCell>
        <mxCell id="XE9NlS-F2RxgZh415EiJ-32" style="edgeStyle=orthogonalEdgeStyle;rounded=1;orthogonalLoop=1;jettySize=auto;html=1;exitX=1;exitY=0.5;exitDx=0;exitDy=0;exitPerimeter=0;entryX=0.5;entryY=0;entryDx=0;entryDy=0;entryPerimeter=0;startArrow=none;startFill=0;endArrow=none;endFill=0;strokeWidth=1;fontSize=18;" edge="1" parent="1" source="XE9NlS-F2RxgZh415EiJ-31" target="XE9NlS-F2RxgZh415EiJ-30">
          <mxGeometry relative="1" as="geometry" />
        </mxCell>
        <mxCell id="XE9NlS-F2RxgZh415EiJ-33" style="edgeStyle=orthogonalEdgeStyle;rounded=0;orthogonalLoop=1;jettySize=auto;html=1;exitX=0;exitY=0.5;exitDx=0;exitDy=0;exitPerimeter=0;startArrow=none;startFill=0;endArrow=none;endFill=0;strokeWidth=1;fontSize=18;entryX=0;entryY=0.835;entryDx=0;entryDy=0;entryPerimeter=0;" edge="1" parent="1" source="XE9NlS-F2RxgZh415EiJ-31" target="XE9NlS-F2RxgZh415EiJ-11">
          <mxGeometry relative="1" as="geometry">
            <mxPoint x="170" y="435" as="targetPoint" />
            <Array as="points">
              <mxPoint x="150" y="435" />
              <mxPoint x="150" y="435" />
            </Array>
          </mxGeometry>
        </mxCell>
        <mxCell id="XE9NlS-F2RxgZh415EiJ-36" value="" style="edgeStyle=orthogonalEdgeStyle;rounded=0;orthogonalLoop=1;jettySize=auto;html=1;startArrow=none;startFill=0;endArrow=none;endFill=0;strokeWidth=1;fontSize=18;" edge="1" parent="1" source="XE9NlS-F2RxgZh415EiJ-31" target="XE9NlS-F2RxgZh415EiJ-27">
          <mxGeometry relative="1" as="geometry" />
        </mxCell>
        <mxCell id="XE9NlS-F2RxgZh415EiJ-31" value="10K" style="pointerEvents=1;verticalLabelPosition=bottom;shadow=0;dashed=0;align=center;html=1;verticalAlign=top;shape=mxgraph.electrical.resistors.resistor_2;fontSize=18;rotation=90;" vertex="1" parent="1">
          <mxGeometry x="105" y="450" width="50" height="20" as="geometry" />
        </mxCell>
        <mxCell id="XE9NlS-F2RxgZh415EiJ-41" style="edgeStyle=orthogonalEdgeStyle;rounded=0;orthogonalLoop=1;jettySize=auto;html=1;exitX=0.5;exitY=0;exitDx=0;exitDy=0;exitPerimeter=0;entryX=0.612;entryY=0.11;entryDx=0;entryDy=0;entryPerimeter=0;startArrow=none;startFill=0;endArrow=none;endFill=0;strokeWidth=1;fontSize=18;" edge="1" parent="1" source="XE9NlS-F2RxgZh415EiJ-40" target="XE9NlS-F2RxgZh415EiJ-23">
          <mxGeometry relative="1" as="geometry" />
        </mxCell>
        <mxCell id="XE9NlS-F2RxgZh415EiJ-40" value="V&lt;sub&gt;dd&lt;/sub&gt;" style="verticalLabelPosition=top;verticalAlign=bottom;shape=mxgraph.electrical.signal_sources.vdd;shadow=0;dashed=0;align=center;strokeWidth=1;fontSize=24;html=1;flipV=1;" vertex="1" parent="1">
          <mxGeometry x="210" y="50" width="60" height="40" as="geometry" />
        </mxCell>
        <mxCell id="XE9NlS-F2RxgZh415EiJ-57" value="" style="edgeStyle=orthogonalEdgeStyle;rounded=0;orthogonalLoop=1;jettySize=auto;html=1;startArrow=none;startFill=0;endArrow=none;endFill=0;strokeWidth=1;fontSize=18;" edge="1" parent="1" source="XE9NlS-F2RxgZh415EiJ-44" target="XE9NlS-F2RxgZh415EiJ-23">
          <mxGeometry relative="1" as="geometry" />
        </mxCell>
        <mxCell id="XE9NlS-F2RxgZh415EiJ-44" value="" style="pointerEvents=1;verticalLabelPosition=bottom;shadow=0;dashed=0;align=center;html=1;verticalAlign=top;shape=mxgraph.electrical.resistors.resistor_2;fontSize=18;rotation=0;" vertex="1" parent="1">
          <mxGeometry x="350" y="145" width="50" height="20" as="geometry" />
        </mxCell>
        <mxCell id="XE9NlS-F2RxgZh415EiJ-53" style="edgeStyle=orthogonalEdgeStyle;rounded=0;orthogonalLoop=1;jettySize=auto;html=1;exitX=0;exitY=0.5;exitDx=0;exitDy=0;exitPerimeter=0;entryX=1;entryY=0.5;entryDx=0;entryDy=0;entryPerimeter=0;startArrow=none;startFill=0;endArrow=none;endFill=0;strokeWidth=1;fontSize=18;" edge="1" parent="1" source="XE9NlS-F2RxgZh415EiJ-46" target="XE9NlS-F2RxgZh415EiJ-44">
          <mxGeometry relative="1" as="geometry" />
        </mxCell>
        <mxCell id="XE9NlS-F2RxgZh415EiJ-58" value="" style="edgeStyle=orthogonalEdgeStyle;rounded=0;orthogonalLoop=1;jettySize=auto;html=1;startArrow=none;startFill=0;endArrow=none;endFill=0;strokeWidth=1;fontSize=18;" edge="1" parent="1" source="XE9NlS-F2RxgZh415EiJ-46" target="XE9NlS-F2RxgZh415EiJ-54">
          <mxGeometry relative="1" as="geometry" />
        </mxCell>
        <mxCell id="XE9NlS-F2RxgZh415EiJ-46" value="" style="pointerEvents=1;verticalLabelPosition=bottom;shadow=0;dashed=0;align=center;html=1;verticalAlign=top;shape=mxgraph.electrical.capacitors.capacitor_1;fontSize=18;rotation=90;" vertex="1" parent="1">
          <mxGeometry x="390" y="200" width="100" height="60" as="geometry" />
        </mxCell>
        <mxCell id="XE9NlS-F2RxgZh415EiJ-55" value="" style="edgeStyle=orthogonalEdgeStyle;rounded=0;orthogonalLoop=1;jettySize=auto;html=1;startArrow=none;startFill=0;endArrow=none;endFill=0;strokeWidth=1;fontSize=18;" edge="1" parent="1" source="XE9NlS-F2RxgZh415EiJ-54" target="XE9NlS-F2RxgZh415EiJ-46">
          <mxGeometry relative="1" as="geometry" />
        </mxCell>
        <mxCell id="XE9NlS-F2RxgZh415EiJ-54" value="" style="pointerEvents=1;verticalLabelPosition=bottom;shadow=0;dashed=0;align=center;html=1;verticalAlign=top;shape=mxgraph.electrical.signal_sources.signal_ground;fontSize=18;" vertex="1" parent="1">
          <mxGeometry x="417.5" y="302.5" width="45" height="30" as="geometry" />
        </mxCell>
      </root>
    </mxGraphModel>
  </diagram>
</mxfile>
